<svg width="583" height="169" viewBox="0 0 583 169" fill="none" xmlns="http://www.w3.org/2000/svg">
<circle cx="147.5" cy="7.5" r="7.5" fill="black"/>
<circle cx="147.5" cy="154.5" r="7.5" fill="black"/>
<circle cx="7.5" cy="7.5" r="7.5" fill="black"/>
<circle cx="427.5" cy="7.5" r="7.5" fill="black"/>
<circle cx="567.5" cy="7.5" r="7.5" fill="black"/>
<circle cx="567.5" cy="154.5" r="7.5" fill="black"/>
<circle cx="427.5" cy="154.5" r="7.5" fill="black"/>
<circle cx="287.5" cy="154.5" r="7.5" fill="black"/>
<circle cx="7.5" cy="154.5" r="7.5" fill="black"/>
<circle cx="287.5" cy="7.5" r="7.5" fill="black"/>
<circle cx="155.5" cy="14.5" r="7.5" fill="#9B9B9B"/>
<circle cx="155.5" cy="161.5" r="7.5" fill="#9B9B9B"/>
<circle cx="15.5" cy="14.5" r="7.5" fill="#9B9B9B"/>
<circle cx="435.5" cy="14.5" r="7.5" fill="#9B9B9B"/>
<circle cx="575.5" cy="14.5" r="7.5" fill="#9B9B9B"/>
<circle cx="575.5" cy="161.5" r="7.5" fill="#9B9B9B"/>
<circle cx="435.5" cy="161.5" r="7.5" fill="#9B9B9B"/>
<circle cx="295.5" cy="161.5" r="7.5" fill="#9B9B9B"/>
<circle cx="15.5" cy="161.5" r="7.5" fill="#9B9B9B"/>
<circle cx="295.5" cy="14.5" r="7.5" fill="#9B9B9B"/>
</svg>
