<svg width="1683" height="22" viewBox="0 0 1683 22" fill="none" xmlns="http://www.w3.org/2000/svg">
<circle cx="147.5" cy="7.5" r="7.5" fill="black"/>
<circle cx="7.5" cy="7.5" r="7.5" fill="black"/>
<circle cx="427.5" cy="7.5" r="7.5" fill="black"/>
<circle cx="567.5" cy="7.5" r="7.5" fill="black"/>
<circle cx="287.5" cy="7.5" r="7.5" fill="black"/>
<circle cx="155.5" cy="14.5" r="7.5" fill="#9B9B9B"/>
<circle cx="15.5" cy="14.5" r="7.5" fill="#9B9B9B"/>
<circle cx="435.5" cy="14.5" r="7.5" fill="#9B9B9B"/>
<circle cx="575.5" cy="14.5" r="7.5" fill="#9B9B9B"/>
<circle cx="295.5" cy="14.5" r="7.5" fill="#9B9B9B"/>
<circle cx="837.5" cy="7.5" r="7.5" fill="black"/>
<circle cx="697.5" cy="7.5" r="7.5" fill="black"/>
<circle cx="1117.5" cy="7.5" r="7.5" fill="black"/>
<circle cx="1257.5" cy="7.5" r="7.5" fill="black"/>
<circle cx="977.5" cy="7.5" r="7.5" fill="black"/>
<circle cx="845.5" cy="14.5" r="7.5" fill="#9B9B9B"/>
<circle cx="705.5" cy="14.5" r="7.5" fill="#9B9B9B"/>
<circle cx="1125.5" cy="14.5" r="7.5" fill="#9B9B9B"/>
<circle cx="1265.5" cy="14.5" r="7.5" fill="#9B9B9B"/>
<circle cx="985.5" cy="14.5" r="7.5" fill="#9B9B9B"/>
<circle cx="1527.5" cy="7.5" r="7.5" fill="black"/>
<circle cx="1387.5" cy="7.5" r="7.5" fill="black"/>
<circle cx="1667.5" cy="7.5" r="7.5" fill="black"/>
<circle cx="1535.5" cy="14.5" r="7.5" fill="#9B9B9B"/>
<circle cx="1395.5" cy="14.5" r="7.5" fill="#9B9B9B"/>
<circle cx="1675.5" cy="14.5" r="7.5" fill="#9B9B9B"/>
</svg>
